<mxfile host="app.diagrams.net" modified="2023-06-14T02:08:47.930Z" agent="Mozilla/5.0 (Windows NT 10.0; Win64; x64; rv:109.0) Gecko/20100101 Firefox/114.0" etag="R97LIqA3YcPJQ2AcyXPt" version="21.2.1" type="onedrive">
  <diagram name="Page-1" id="drtH6QHsSXXLarCIS0Y8">
    <mxGraphModel grid="1" page="1" gridSize="10" guides="1" tooltips="1" connect="1" arrows="1" fold="1" pageScale="1" pageWidth="1654" pageHeight="1169" math="0" shadow="0">
      <root>
        <mxCell id="0" />
        <mxCell id="1" parent="0" />
      </root>
    </mxGraphModel>
  </diagram>
</mxfile>
